<svg xmlns="http://www.w3.org/2000/svg" version="1.1" xmlns:xlink="http://www.w3.org/1999/xlink" xmlns:svgjs="http://svgjs.dev/svgjs" width="1500" height="348" viewBox="0 0 1500 348"><g transform="matrix(1,0,0,1,-0.9090909090909918,-0.8450078509117134)"><svg viewBox="0 0 396 92" data-background-color="#ffffff" preserveAspectRatio="xMidYMid meet" height="348" width="1500" xmlns="http://www.w3.org/2000/svg" xmlns:xlink="http://www.w3.org/1999/xlink"><g id="tight-bounds" transform="matrix(1,0,0,1,0.2400000000000091,0.2233928801260845)"><svg viewBox="0 0 395.52 91.55321423974786" height="91.55321423974786" width="395.52"><g><svg viewBox="0 0 557.932419082515 129.147720205204" height="91.55321423974786" width="395.52"><g><rect width="5.337280498746131" height="93.9171192519754" x="143.10320010537583" y="17.6153004766143" fill="#000000" opacity="1" stroke-width="0" stroke="transparent" fill-opacity="1" class="rect-yte-0" data-fill-palette-color="primary" rx="1%" id="yte-0" data-palette-color="#000000"></rect></g><g transform="matrix(1,0,0,1,162.412419082515,17.84892515137045)"><svg viewBox="0 0 395.52 93.44986990246309" height="93.44986990246309" width="395.52"><g id="textblocktransform"><svg viewBox="0 0 395.52 93.44986990246309" height="93.44986990246309" width="395.52" id="textblock"><g><svg viewBox="0 0 395.52 59.184069868995635" height="59.184069868995635" width="395.52"><g transform="matrix(1,0,0,1,0,0)"><svg width="395.52" viewBox="0.49 -36.84 251.56 37.650000000000006" height="59.184069868995635" data-palette-color="#000000"><g class="wordmark-text-0" data-fill-palette-color="primary" id="text-0"><path d="M30.81-33.54L30.81-31.4 28.1-30.91 18.04-14.26 18.04-3.44Q18.04-3.08 18.31-2.73 18.58-2.39 19.09-2.34L19.09-2.34 22.29-2.15 22.29 0 8.79 0 8.79-2.15 11.89-2.34Q12.43-2.39 12.71-2.73 12.99-3.08 12.99-3.44L12.99-3.44 12.99-13.5 3.39-30.81 0.49-31.4 0.49-33.54 12.35-33.54 12.35-31.4 9.84-31.15Q9.16-31.05 9.16-30.57L9.16-30.57Q9.16-30.32 9.25-30.15L9.25-30.15 16.31-17.09 24.05-30Q24.15-30.18 24.15-30.35L24.15-30.35Q24.15-30.96 23.46-31.05L23.46-31.05 20.65-31.4 20.65-33.54 30.81-33.54ZM46.6-13.31L46.6-9.64 34.3-9.64 34.3-13.31 46.6-13.31ZM73.75-9.4L73.75-9.4Q73.75-6.88 72.39-4.54 71.04-2.2 68.12-0.7 65.2 0.81 60.49 0.81L60.49 0.81Q57.81 0.81 55.81 0.34 53.8-0.12 52.7-0.59 51.61-1.05 51.61-1.05L51.61-1.05 51.61-9.91 54.76-9.91 55.41-4.25Q55.46-3.96 55.73-3.61 56-3.27 56.25-3.15L56.25-3.15Q56.37-3.13 57.67-2.56 58.98-2 61.3-2L61.3-2Q64.5-2 66.57-3.56 68.65-5.13 68.65-7.91L68.65-7.91Q68.65-9.42 67.81-10.56 66.96-11.69 65.62-12.57 64.28-13.45 62.75-14.17 61.23-14.89 59.86-15.55L59.86-15.55Q57.81-16.53 56.05-17.64 54.29-18.75 53.22-20.39 52.14-22.02 52.14-24.56L52.14-24.56Q52.14-27.54 53.66-29.74 55.17-31.93 57.78-33.14 60.4-34.35 63.69-34.35L63.69-34.35Q66.38-34.35 68.43-33.83 70.48-33.3 72.07-32.79L72.07-32.79 72.5-32.64 72.5-24.85 69.65-24.85 68.89-29.64Q68.84-29.98 68.59-30.14 68.33-30.3 68.11-30.52L68.11-30.52Q67.91-30.66 66.9-31.15 65.89-31.64 63.76-31.64L63.76-31.64Q60.76-31.64 59.03-29.97 57.29-28.3 57.29-25.76L57.29-25.76Q57.29-23.46 59.09-21.95 60.88-20.43 64.25-19.14L64.25-19.14Q68.79-17.43 71.27-15.3 73.75-13.16 73.75-9.4ZM101.19-12.01L101.19-12.01Q101.19-8.47 99.72-5.6 98.26-2.73 95.59-1.06 92.91 0.61 89.25 0.61L89.25 0.61Q85.61 0.61 82.95-1.05 80.29-2.71 78.85-5.57 77.41-8.42 77.41-12.01L77.41-12.01Q77.41-15.58 78.86-18.46 80.31-21.34 83.01-23.02 85.71-24.71 89.4-24.71L89.4-24.71Q93.13-24.71 95.77-23 98.41-21.29 99.8-18.41 101.19-15.53 101.19-12.01ZM95.99-12.06L95.99-12.06Q95.99-14.79 95.27-17.16 94.55-19.53 93.07-21 91.59-22.46 89.35-22.46L89.35-22.46Q87.03-22.46 85.55-21 84.07-19.53 83.37-17.16 82.66-14.79 82.66-12.06L82.66-12.06Q82.66-9.35 83.38-6.97 84.1-4.59 85.58-3.13 87.05-1.66 89.3-1.66L89.3-1.66Q91.59-1.66 93.07-3.13 94.55-4.59 95.27-6.96 95.99-9.33 95.99-12.06ZM116.4-1.95L116.4 0 104.24 0 104.24-1.95 106.9-2.1Q107.24-2.1 107.62-2.47 108-2.83 108-3.15L108-3.15 108-33.25 104.19-33.25 104.19-34.91 110.59-36.84 112.64-36.84 112.64-3.15Q112.64-2.83 113-2.47 113.37-2.1 113.69-2.1L113.69-2.1 116.4-1.95ZM145.13-1.95L145.13 0 137.19 0 137.19-2.86Q136.34-2.2 135.02-1.39 133.7-0.59 132.19 0.01 130.68 0.61 129.19 0.61L129.19 0.61Q125.96 0.61 124.12-1.33 122.28-3.27 122.28-7.5L122.28-7.5 122.28-21.04 118.79-21.04 118.79-22.75 124.94-24.71 126.94-24.71 126.94-8.45Q126.94-5.79 128.03-4.3 129.11-2.81 131.77-2.81L131.77-2.81Q133.31-2.81 134.8-3.33 136.29-3.86 137.19-4.3L137.19-4.3 137.19-21.04 133.68-21.04 133.68-22.75 139.78-24.71 141.83-24.71 141.83-3.2Q141.83-2.73 142.16-2.44 142.49-2.15 142.93-2.1L142.93-2.1 145.13-1.95ZM162.83-3.05L162.83-3.05 162.83-1.05Q162.83-1.05 161.89-0.63 160.95-0.22 159.42 0.2 157.9 0.61 156.09 0.61L156.09 0.61Q153.28 0.61 152-0.72 150.72-2.05 150.72-5L150.72-5 150.72-21.61 147.52-21.61 147.52-23.24 150.94-24.85 153.18-30.15 155.38-30.15 155.38-24.1 162.44-24.1 162.44-21.61 155.38-21.61 155.38-7.64Q155.38-4.66 156.38-3.43 157.38-2.2 159.38-2.2L159.38-2.2Q160.85-2.2 161.84-2.62 162.83-3.05 162.83-3.05ZM174.05-32.35L174.05-32.35Q174.05-31.08 173.18-30.16 172.3-29.25 171.03-29.25L171.03-29.25Q169.76-29.25 168.84-30.16 167.93-31.08 167.93-32.35L167.93-32.35Q167.93-33.64 168.84-34.52 169.76-35.4 171.03-35.4L171.03-35.4Q172.3-35.4 173.18-34.52 174.05-33.64 174.05-32.35ZM176.62-1.95L176.62 0 164.88 0 164.88-1.95 167.32-2.1Q168.37-2.17 168.37-3.2L168.37-3.2 168.37-21.04 164.92-21.04 164.92-22.8 171.03-24.71 173-24.71 173-3.2Q173-2.73 173.31-2.44 173.62-2.15 174.05-2.1L174.05-2.1 176.62-1.95ZM203.81-12.01L203.81-12.01Q203.81-8.47 202.35-5.6 200.88-2.73 198.21-1.06 195.54 0.61 191.87 0.61L191.87 0.61Q188.24 0.61 185.58-1.05 182.91-2.71 181.47-5.57 180.03-8.42 180.03-12.01L180.03-12.01Q180.03-15.58 181.49-18.46 182.94-21.34 185.64-23.02 188.33-24.71 192.02-24.71L192.02-24.71Q195.76-24.71 198.39-23 201.03-21.29 202.42-18.41 203.81-15.53 203.81-12.01ZM198.61-12.06L198.61-12.06Q198.61-14.79 197.89-17.16 197.17-19.53 195.7-21 194.22-22.46 191.97-22.46L191.97-22.46Q189.65-22.46 188.18-21 186.7-19.53 185.99-17.16 185.28-14.79 185.28-12.06L185.28-12.06Q185.28-9.35 186-6.97 186.72-4.59 188.2-3.13 189.68-1.66 191.92-1.66L191.92-1.66Q194.22-1.66 195.7-3.13 197.17-4.59 197.89-6.96 198.61-9.33 198.61-12.06ZM232.86-1.95L232.86 0 221.83 0 221.83-1.95 223.93-2.1Q224.37-2.15 224.67-2.44 224.98-2.73 224.98-3.2L224.98-3.2 224.98-16.21Q224.98-18.58 223.88-19.81 222.78-21.04 220.17-21.04L220.17-21.04Q218.75-21.04 217.35-20.64 215.94-20.24 214.67-19.6L214.67-19.6 214.67-3.2Q214.67-2.17 215.72-2.1L215.72-2.1 217.82-1.95 217.82 0 206.52 0 206.52-1.95 208.96-2.1Q210.01-2.17 210.01-3.2L210.01-3.2 210.01-20.56 206.52-20.56 206.52-22.19 212.62-24.1 214.67-24.1 214.67-21.61Q216.77-22.8 218.98-23.75 221.19-24.71 222.93-24.71L222.93-24.71Q226.2-24.71 227.91-22.67 229.62-20.63 229.62-16.99L229.62-16.99 229.62-3.2Q229.62-2.73 229.92-2.44 230.23-2.15 230.67-2.1L230.67-2.1 232.86-1.95ZM252.05-7.25L252.05-7.25Q252.05-3.56 249.51-1.48 246.97 0.61 242.5 0.61L242.5 0.61Q240.21 0.61 238.27 0.13 236.33-0.34 235.57-0.66L235.57-0.66 235.57-7.3 238.11-7.3 238.72-3.05Q239.48-2.56 240.59-2.11 241.7-1.66 243.16-1.66L243.16-1.66Q245.31-1.66 246.48-2.86 247.66-4.05 247.66-5.54L247.66-5.54Q247.66-7.52 246.24-8.53 244.82-9.55 242.21-10.79L242.21-10.79 241.55-11.11Q238.82-12.4 237.37-13.81 235.91-15.21 235.91-17.46L235.91-17.46Q235.91-20.8 238.26-22.75 240.6-24.71 244.92-24.71L244.92-24.71Q247.12-24.71 248.84-24.3 250.56-23.9 251.32-23.56L251.32-23.56 251.32-17.65 248.71-17.65 248.31-21.14Q247.78-21.56 246.73-21.92 245.68-22.29 244.51-22.29L244.51-22.29Q242.46-22.29 241.45-21.35 240.45-20.41 240.45-18.95L240.45-18.95Q240.45-17.26 241.66-16.27 242.87-15.28 246.04-13.84L246.04-13.84Q248.66-12.65 250.35-11.17 252.05-9.69 252.05-7.25Z" fill="#000000" data-fill-palette-color="primary"></path></g></svg></g></svg></g><g transform="matrix(1,0,0,1,0,73.15600834738865)"><svg viewBox="0 0 232.209792 20.29386155507445" height="20.29386155507445" width="232.209792"><g transform="matrix(1,0,0,1,0,0)"><svg width="232.209792" viewBox="1.95 -36.84 552.5 48.290000000000006" height="20.29386155507445" data-palette-color="#fe632a"><path d="M26.49-9.25L29.39-9.25 29.39-1.15Q29.27-1.1 27.84-0.61 26.42-0.12 24.19 0.34 21.97 0.81 19.41 0.81L19.41 0.81Q15.21 0.81 11.96-0.65 8.72-2.1 6.48-4.59 4.25-7.08 3.1-10.24 1.95-13.4 1.95-16.85L1.95-16.85Q1.95-22.02 4.15-25.96 6.35-29.91 10.29-32.13 14.23-34.35 19.46-34.35L19.46-34.35Q21.9-34.35 24.13-33.84 26.37-33.33 29.39-32.4L29.39-32.4 29.39-24.56 26.39-24.56 25.66-29.1Q25.56-29.52 25.29-29.83 25.02-30.15 24.8-30.25L24.8-30.25 24.61-30.35Q23.97-30.64 22.71-31.09 21.44-31.54 19.7-31.54L19.7-31.54Q16.31-31.54 13.59-29.87 10.86-28.2 9.28-24.93 7.69-21.66 7.69-16.85L7.69-16.85Q7.69-9.86 11.06-5.91 14.43-1.95 20.36-1.95L20.36-1.95Q22.12-1.95 23.22-2.37 24.32-2.78 24.39-2.81L24.39-2.81Q25.17-3.1 25.34-3.81L25.34-3.81 26.49-9.25ZM50.39-23.95L50.39-18.99 48.44-18.99Q47.97-19.56 47.32-19.96 46.68-20.36 45.75-20.36L45.75-20.36Q44.55-20.36 43.3-19.53 42.04-18.7 40.74-17.26L40.74-17.26 40.74-3.2Q40.74-2.15 41.79-2.1L41.79-2.1 45.09-1.95 45.09 0 32.59 0 32.59-1.9 35.06-2.1Q35.5-2.15 35.8-2.44 36.11-2.73 36.11-3.2L36.11-3.2 36.11-20.56 32.49-20.56 32.49-22.19 38.69-24.1 40.74-24.1 40.74-19.65Q41.48-20.46 42.58-21.66 43.67-22.85 44.92-23.78 46.16-24.71 47.34-24.71L47.34-24.71Q48.12-24.71 49.02-24.46 49.92-24.22 50.39-23.95L50.39-23.95ZM75.51-1.95L75.51 0 68.11 0 67.45-2.95Q67.45-2.95 66.71-2.42 65.96-1.88 64.74-1.17 63.52-0.46 62.04 0.07 60.57 0.61 59.1 0.61L59.1 0.61Q56.39 0.61 54.5-1.2 52.61-3 52.61-6.15L52.61-6.15Q52.61-7.54 53.11-8.74 53.61-9.94 55.11-11.02 56.61-12.11 59.58-13.15 62.54-14.18 67.45-15.26L67.45-15.26 67.45-17.41Q67.45-22.34 62.79-22.34L62.79-22.34Q61.49-22.34 60.55-22.09 59.61-21.85 59.25-21.7L59.25-21.7 59.25-17.36 55.61-17.36Q54.93-17.36 54.34-17.61 53.75-17.87 53.75-18.8L53.75-18.8Q53.75-20.85 55.32-22.16 56.88-23.46 59.28-24.08 61.69-24.71 64.16-24.71L64.16-24.71Q67.26-24.71 68.96-23.74 70.67-22.78 71.36-21.08 72.04-19.38 72.04-17.21L72.04-17.21 72.04-3.2Q72.04-2.73 72.35-2.44 72.65-2.15 73.09-2.1L73.09-2.1 75.51-1.95ZM67.45-4.71L67.45-4.71 67.45-13.35Q64.08-12.52 62.09-11.68 60.1-10.84 59.13-10 58.15-9.16 57.84-8.29 57.54-7.42 57.54-6.49L57.54-6.49Q57.54-4.96 58.53-3.65 59.52-2.34 61.3-2.34L61.3-2.34Q62.3-2.34 63.37-2.7 64.45-3.05 65.38-3.53 66.3-4 66.88-4.36 67.45-4.71 67.45-4.71ZM95.79-33.84L95.79-33.84Q95.79-32.84 95.29-32.26 94.79-31.69 94.23-31.45 93.67-31.2 93.47-31.15L93.47-31.15Q93.4-31.23 92.7-31.71 92.01-32.2 91.14-32.81 90.28-33.42 89.6-33.9 88.93-34.38 88.88-34.4L88.88-34.4Q87.81-33.84 86.87-32.13 85.93-30.42 85.93-26.9L85.93-26.9 85.93-23.71 92.13-23.71 92.13-21.14 85.93-21.14 85.93-3.2Q85.93-2.73 86.24-2.43 86.54-2.12 86.98-2.1L86.98-2.1 89.93-1.95 89.93 0 77.78 0 77.78-1.95 80.24-2.1Q80.68-2.15 80.99-2.44 81.29-2.73 81.29-3.2L81.29-3.2 81.29-21.14 78.09-21.14 78.09-22.9 81.29-23.8Q81.29-26.27 81.67-27.89 82.05-29.52 82.98-31.3L82.98-31.3Q84.44-34.13 86.75-35.49 89.06-36.84 91.5-36.84L91.5-36.84Q93.62-36.84 94.71-35.95 95.79-35.06 95.79-33.84ZM109.29-3.05L109.29-3.05 109.29-1.05Q109.29-1.05 108.35-0.63 107.41-0.22 105.89 0.2 104.36 0.61 102.55 0.61L102.55 0.61Q99.75 0.61 98.46-0.72 97.18-2.05 97.18-5L97.18-5 97.18-21.61 93.98-21.61 93.98-23.24 97.4-24.85 99.65-30.15 101.85-30.15 101.85-24.1 108.9-24.1 108.9-21.61 101.85-21.61 101.85-7.64Q101.85-4.66 102.85-3.43 103.85-2.2 105.85-2.2L105.85-2.2Q107.31-2.2 108.3-2.62 109.29-3.05 109.29-3.05ZM120.52-32.35L120.52-32.35Q120.52-31.08 119.64-30.16 118.76-29.25 117.49-29.25L117.49-29.25Q116.22-29.25 115.31-30.16 114.39-31.08 114.39-32.35L114.39-32.35Q114.39-33.64 115.31-34.52 116.22-35.4 117.49-35.4L117.49-35.4Q118.76-35.4 119.64-34.52 120.52-33.64 120.52-32.35ZM123.08-1.95L123.08 0 111.34 0 111.34-1.95 113.78-2.1Q114.83-2.17 114.83-3.2L114.83-3.2 114.83-21.04 111.39-21.04 111.39-22.8 117.49-24.71 119.47-24.71 119.47-3.2Q119.47-2.73 119.78-2.44 120.08-2.15 120.52-2.1L120.52-2.1 123.08-1.95ZM152.13-1.95L152.13 0 141.1 0 141.1-1.95 143.2-2.1Q143.64-2.15 143.94-2.44 144.25-2.73 144.25-3.2L144.25-3.2 144.25-16.21Q144.25-18.58 143.15-19.81 142.05-21.04 139.44-21.04L139.44-21.04Q138.02-21.04 136.62-20.64 135.21-20.24 133.94-19.6L133.94-19.6 133.94-3.2Q133.94-2.17 134.99-2.1L134.99-2.1 137.09-1.95 137.09 0 125.79 0 125.79-1.95 128.23-2.1Q129.28-2.17 129.28-3.2L129.28-3.2 129.28-20.56 125.79-20.56 125.79-22.19 131.89-24.1 133.94-24.1 133.94-21.61Q136.04-22.8 138.25-23.75 140.46-24.71 142.2-24.71L142.2-24.71Q145.47-24.71 147.18-22.67 148.89-20.63 148.89-16.99L148.89-16.99 148.89-3.2Q148.89-2.73 149.19-2.44 149.5-2.15 149.94-2.1L149.94-2.1 152.13-1.95ZM178.52-23.19L178.52-20.75 173.54-20.75Q174.1-19.85 174.49-18.77 174.88-17.7 174.88-16.26L174.88-16.26Q174.88-13.77 173.52-12 172.15-10.23 169.92-9.28 167.68-8.33 165.07-8.33L165.07-8.33Q164.83-8.33 164.58-8.33 164.34-8.33 164.09-8.35L164.09-8.35Q163.78-7.84 163.67-7.25 163.56-6.67 163.56-6.15L163.56-6.15Q163.56-5.69 163.61-5.37 163.65-5.05 163.68-5L163.68-5 164.39-4.93Q166.14-4.76 168.33-4.44 170.51-4.13 172.55-3.42 174.59-2.71 175.91-1.42 177.23-0.12 177.23 2L177.23 2Q177.23 4.37 175.5 6.53 173.76 8.69 170.82 10.07 167.88 11.45 164.24 11.45L164.24 11.45Q159.77 11.45 157.31 9.41 154.84 7.37 154.84 4.35L154.84 4.35Q154.84 2.17 156.13 0.48 157.43-1.22 160.14-1.71L160.14-1.71Q159.87-2.49 159.75-2.83 159.63-3.17 159.63-4L159.63-4Q159.63-4.98 160.22-6.16 160.82-7.35 162.14-8.69L162.14-8.69Q159.65-9.25 157.8-11.22 155.94-13.18 155.94-16.21L155.94-16.21Q155.94-20.14 158.71-22.42 161.48-24.71 165.97-24.71L165.97-24.71Q167.76-24.71 169.28-24.18 170.81-23.66 171.78-23.19L171.78-23.19 178.52-23.19ZM170.12-16.55L170.12-16.55Q170.12-18.14 169.59-19.53 169.05-20.92 168.02-21.79 167-22.66 165.49-22.66L165.49-22.66Q163.39-22.66 162.06-21.03 160.72-19.41 160.72-16.5L160.72-16.5Q160.72-13.99 161.92-12.19 163.12-10.4 165.49-10.4L165.49-10.4Q167.73-10.4 168.93-12.21 170.12-14.01 170.12-16.55ZM172.93 3.34L172.93 3.34Q172.93 1.78 171.85 0.93 170.76 0.07 169.15-0.34 167.54-0.76 165.9-0.94 164.26-1.12 163.14-1.34L163.14-1.34Q160.97-0.56 160.15 0.78 159.33 2.12 159.33 3.34L159.33 3.34Q159.33 4.54 160.03 5.9 160.72 7.25 162.18 8.2 163.63 9.16 165.88 9.16L165.88 9.16Q168.27 9.16 169.83 8.2 171.39 7.25 172.16 5.9 172.93 4.54 172.93 3.34ZM228.79-1.95L228.79 0 220.92 0 220.92-2.66Q219.22-1.34 217.29-0.37 215.36 0.61 213.19 0.61L213.19 0.61Q210.67 0.61 208.85-0.45 207.03-1.51 205.87-3.27 204.71-5.03 204.15-7.15 203.59-9.28 203.59-11.4L203.59-11.4Q203.59-14.79 204.98-17.83 206.37-20.87 209.21-22.79 212.04-24.71 216.33-24.71L216.33-24.71Q217.53-24.71 218.94-24.48 220.34-24.24 220.92-24.1L220.92-24.1 220.92-33.25 217.14-33.25 217.14-34.91 223.59-36.84 225.59-36.84 225.59-3.2Q225.59-2.17 226.64-2.1L226.64-2.1 228.79-1.95ZM220.92-4.54L220.92-4.54 220.92-21.56Q220.29-21.78 219.03-22.03 217.78-22.29 216.68-22.29L216.68-22.29Q212.97-22.29 210.74-19.54 208.52-16.8 208.52-12.26L208.52-12.26Q208.52-8.18 210.43-5.49 212.33-2.81 215.77-2.81L215.77-2.81Q217.29-2.81 218.62-3.38 219.95-3.96 220.92-4.54ZM240.97-32.35L240.97-32.35Q240.97-31.08 240.09-30.16 239.21-29.25 237.94-29.25L237.94-29.25Q236.67-29.25 235.75-30.16 234.84-31.08 234.84-32.35L234.84-32.35Q234.84-33.64 235.75-34.52 236.67-35.4 237.94-35.4L237.94-35.4Q239.21-35.4 240.09-34.52 240.97-33.64 240.97-32.35ZM243.53-1.95L243.53 0 231.79 0 231.79-1.95 234.23-2.1Q235.28-2.17 235.28-3.2L235.28-3.2 235.28-21.04 231.84-21.04 231.84-22.8 237.94-24.71 239.92-24.71 239.92-3.2Q239.92-2.73 240.22-2.44 240.53-2.15 240.97-2.1L240.97-2.1 243.53-1.95ZM270.63-23.19L270.63-20.75 265.65-20.75Q266.21-19.85 266.6-18.77 266.99-17.7 266.99-16.26L266.99-16.26Q266.99-13.77 265.62-12 264.25-10.23 262.02-9.28 259.79-8.33 257.17-8.33L257.17-8.33Q256.93-8.33 256.69-8.33 256.44-8.33 256.2-8.35L256.2-8.35Q255.88-7.84 255.77-7.25 255.66-6.67 255.66-6.15L255.66-6.15Q255.66-5.69 255.71-5.37 255.76-5.05 255.78-5L255.78-5 256.49-4.93Q258.25-4.76 260.43-4.44 262.62-4.13 264.66-3.42 266.7-2.71 268.01-1.42 269.33-0.12 269.33 2L269.33 2Q269.33 4.37 267.6 6.53 265.87 8.69 262.92 10.07 259.98 11.45 256.34 11.45L256.34 11.45Q251.88 11.45 249.41 9.41 246.95 7.37 246.95 4.35L246.95 4.35Q246.95 2.17 248.24 0.48 249.53-1.22 252.24-1.71L252.24-1.71Q251.97-2.49 251.85-2.83 251.73-3.17 251.73-4L251.73-4Q251.73-4.98 252.33-6.16 252.93-7.35 254.24-8.69L254.24-8.69Q251.75-9.25 249.9-11.22 248.04-13.18 248.04-16.21L248.04-16.21Q248.04-20.14 250.81-22.42 253.59-24.71 258.08-24.71L258.08-24.71Q259.86-24.71 261.39-24.18 262.91-23.66 263.89-23.19L263.89-23.19 270.63-23.19ZM262.23-16.55L262.23-16.55Q262.23-18.14 261.69-19.53 261.15-20.92 260.13-21.79 259.1-22.66 257.59-22.66L257.59-22.66Q255.49-22.66 254.16-21.03 252.83-19.41 252.83-16.5L252.83-16.5Q252.83-13.99 254.03-12.19 255.22-10.4 257.59-10.4L257.59-10.4Q259.84-10.4 261.03-12.21 262.23-14.01 262.23-16.55ZM265.04 3.34L265.04 3.34Q265.04 1.78 263.95 0.93 262.86 0.07 261.25-0.34 259.64-0.76 258-0.94 256.37-1.12 255.25-1.34L255.25-1.34Q253.07-0.56 252.26 0.78 251.44 2.12 251.44 3.34L251.44 3.34Q251.44 4.54 252.13 5.9 252.83 7.25 254.28 8.2 255.73 9.16 257.98 9.16L257.98 9.16Q260.37 9.16 261.94 8.2 263.5 7.25 264.27 5.9 265.04 4.54 265.04 3.34ZM282.37-32.35L282.37-32.35Q282.37-31.08 281.49-30.16 280.61-29.25 279.34-29.25L279.34-29.25Q278.07-29.25 277.16-30.16 276.24-31.08 276.24-32.35L276.24-32.35Q276.24-33.64 277.16-34.52 278.07-35.4 279.34-35.4L279.34-35.4Q280.61-35.4 281.49-34.52 282.37-33.64 282.37-32.35ZM284.93-1.95L284.93 0 273.19 0 273.19-1.95 275.63-2.1Q276.68-2.17 276.68-3.2L276.68-3.2 276.68-21.04 273.24-21.04 273.24-22.8 279.34-24.71 281.32-24.71 281.32-3.2Q281.32-2.73 281.62-2.44 281.93-2.15 282.37-2.1L282.37-2.1 284.93-1.95ZM303.29-3.05L303.29-3.05 303.29-1.05Q303.29-1.05 302.35-0.63 301.41-0.22 299.88 0.2 298.36 0.61 296.55 0.61L296.55 0.61Q293.74 0.61 292.46-0.72 291.18-2.05 291.18-5L291.18-5 291.18-21.61 287.98-21.61 287.98-23.24 291.4-24.85 293.64-30.15 295.84-30.15 295.84-24.1 302.9-24.1 302.9-21.61 295.84-21.61 295.84-7.64Q295.84-4.66 296.84-3.43 297.84-2.2 299.85-2.2L299.85-2.2Q301.31-2.2 302.3-2.62 303.29-3.05 303.29-3.05ZM328.24-1.95L328.24 0 320.84 0 320.18-2.95Q320.18-2.95 319.44-2.42 318.69-1.88 317.47-1.17 316.25-0.46 314.77 0.07 313.3 0.61 311.83 0.61L311.83 0.61Q309.12 0.61 307.23-1.2 305.34-3 305.34-6.15L305.34-6.15Q305.34-7.54 305.84-8.74 306.34-9.94 307.84-11.02 309.34-12.11 312.31-13.15 315.27-14.18 320.18-15.26L320.18-15.26 320.18-17.41Q320.18-22.34 315.52-22.34L315.52-22.34Q314.22-22.34 313.28-22.09 312.34-21.85 311.98-21.7L311.98-21.7 311.98-17.36 308.34-17.36Q307.66-17.36 307.07-17.61 306.48-17.87 306.48-18.8L306.48-18.8Q306.48-20.85 308.05-22.16 309.61-23.46 312.01-24.08 314.42-24.71 316.88-24.71L316.88-24.71Q319.98-24.71 321.69-23.74 323.4-22.78 324.09-21.08 324.77-19.38 324.77-17.21L324.77-17.21 324.77-3.2Q324.77-2.73 325.07-2.44 325.38-2.15 325.82-2.1L325.82-2.1 328.24-1.95ZM320.18-4.71L320.18-4.71 320.18-13.35Q316.81-12.52 314.82-11.68 312.83-10.84 311.85-10 310.88-9.16 310.57-8.29 310.27-7.42 310.27-6.49L310.27-6.49Q310.27-4.96 311.26-3.65 312.25-2.34 314.03-2.34L314.03-2.34Q315.03-2.34 316.1-2.7 317.18-3.05 318.1-3.53 319.03-4 319.61-4.36 320.18-4.71 320.18-4.71ZM342.57-1.95L342.57 0 330.41 0 330.41-1.95 333.07-2.1Q333.41-2.1 333.79-2.47 334.17-2.83 334.17-3.15L334.17-3.15 334.17-33.25 330.36-33.25 330.36-34.91 336.75-36.84 338.81-36.84 338.81-3.15Q338.81-2.83 339.17-2.47 339.54-2.1 339.86-2.1L339.86-2.1 342.57-1.95ZM377.3-32.35L377.3-32.35Q377.3-31.08 376.42-30.16 375.54-29.25 374.27-29.25L374.27-29.25Q373-29.25 372.09-30.16 371.17-31.08 371.17-32.35L371.17-32.35Q371.17-33.64 372.09-34.52 373-35.4 374.27-35.4L374.27-35.4Q375.54-35.4 376.42-34.52 377.3-33.64 377.3-32.35ZM379.86-1.95L379.86 0 368.12 0 368.12-1.95 370.56-2.1Q371.61-2.17 371.61-3.2L371.61-3.2 371.61-21.04 368.17-21.04 368.17-22.8 374.27-24.71 376.25-24.71 376.25-3.2Q376.25-2.73 376.56-2.44 376.86-2.15 377.3-2.1L377.3-2.1 379.86-1.95ZM408.48-1.95L408.48 0 400.61 0 400.61-2.66Q398.91-1.34 396.98-0.37 395.05 0.61 392.87 0.61L392.87 0.61Q390.36 0.61 388.54-0.45 386.72-1.51 385.56-3.27 384.4-5.03 383.84-7.15 383.28-9.28 383.28-11.4L383.28-11.4Q383.28-14.79 384.67-17.83 386.06-20.87 388.9-22.79 391.73-24.71 396.02-24.71L396.02-24.71Q397.22-24.71 398.62-24.48 400.03-24.24 400.61-24.1L400.61-24.1 400.61-33.25 396.83-33.25 396.83-34.91 403.28-36.84 405.28-36.84 405.28-3.2Q405.28-2.17 406.33-2.1L406.33-2.1 408.48-1.95ZM400.61-4.54L400.61-4.54 400.61-21.56Q399.98-21.78 398.72-22.03 397.46-22.29 396.37-22.29L396.37-22.29Q392.66-22.29 390.43-19.54 388.21-16.8 388.21-12.26L388.21-12.26Q388.21-8.18 390.12-5.49 392.02-2.81 395.46-2.81L395.46-2.81Q396.98-2.81 398.31-3.38 399.64-3.96 400.61-4.54ZM432.57-5.54L432.57-2.49Q430.47-1.2 428.04-0.29 425.61 0.61 423.07 0.61L423.07 0.61Q420.05 0.61 417.4-0.74 414.75-2.1 413.11-4.86 411.48-7.62 411.48-11.79L411.48-11.79Q411.48-15.7 412.99-18.6 414.5-21.51 417.16-23.11 419.83-24.71 423.22-24.71L423.22-24.71Q427.88-24.71 430.23-21.81 432.57-18.92 432.57-14.45L432.57-14.45Q432.57-14.21 432.57-13.81 432.57-13.4 432.52-13.06L432.52-13.06 416.31-13.06Q416.31-11.16 416.71-9.27 417.12-7.37 418.07-5.83 419.02-4.3 420.63-3.37 422.24-2.44 424.66-2.44L424.66-2.44Q426.81-2.44 428.85-3.43 430.89-4.42 432.57-5.54L432.57-5.54ZM416.58-15.31L427.56-15.31 427.56-16.41Q427.56-18.87 426.38-20.56 425.2-22.24 422.71-22.24L422.71-22.24Q420.24-22.24 418.51-20.39 416.77-18.53 416.58-15.31L416.58-15.31ZM461.62-1.95L461.62 0 450.58 0 450.58-1.95 452.68-2.1Q453.12-2.15 453.43-2.44 453.73-2.73 453.73-3.2L453.73-3.2 453.73-16.21Q453.73-18.58 452.64-19.81 451.54-21.04 448.92-21.04L448.92-21.04Q447.51-21.04 446.1-20.64 444.7-20.24 443.43-19.6L443.43-19.6 443.43-3.2Q443.43-2.17 444.48-2.1L444.48-2.1 446.58-1.95 446.58 0 435.28 0 435.28-1.95 437.72-2.1Q438.77-2.17 438.77-3.2L438.77-3.2 438.77-20.56 435.28-20.56 435.28-22.19 441.38-24.1 443.43-24.1 443.43-21.61Q445.53-22.8 447.74-23.75 449.95-24.71 451.68-24.71L451.68-24.71Q454.95-24.71 456.66-22.67 458.37-20.63 458.37-16.99L458.37-16.99 458.37-3.2Q458.37-2.73 458.68-2.44 458.98-2.15 459.42-2.1L459.42-2.1 461.62-1.95ZM479.27-3.05L479.27-3.05 479.27-1.05Q479.27-1.05 478.33-0.63 477.39-0.22 475.86 0.2 474.34 0.61 472.53 0.61L472.53 0.61Q469.72 0.61 468.44-0.72 467.16-2.05 467.16-5L467.16-5 467.16-21.61 463.96-21.61 463.96-23.24 467.38-24.85 469.63-30.15 471.82-30.15 471.82-24.1 478.88-24.1 478.88-21.61 471.82-21.61 471.82-7.64Q471.82-4.66 472.82-3.43 473.82-2.2 475.83-2.2L475.83-2.2Q477.29-2.2 478.28-2.62 479.27-3.05 479.27-3.05ZM490.5-32.35L490.5-32.35Q490.5-31.08 489.62-30.16 488.74-29.25 487.47-29.25L487.47-29.25Q486.2-29.25 485.28-30.16 484.37-31.08 484.37-32.35L484.37-32.35Q484.37-33.64 485.28-34.52 486.2-35.4 487.47-35.4L487.47-35.4Q488.74-35.4 489.62-34.52 490.5-33.64 490.5-32.35ZM493.06-1.95L493.06 0 481.32 0 481.32-1.95 483.76-2.1Q484.81-2.17 484.81-3.2L484.81-3.2 484.81-21.04 481.37-21.04 481.37-22.8 487.47-24.71 489.45-24.71 489.45-3.2Q489.45-2.73 489.75-2.44 490.06-2.15 490.5-2.1L490.5-2.1 493.06-1.95ZM511.42-3.05L511.42-3.05 511.42-1.05Q511.42-1.05 510.48-0.63 509.54-0.22 508.01 0.2 506.49 0.61 504.68 0.61L504.68 0.61Q501.87 0.61 500.59-0.72 499.31-2.05 499.31-5L499.31-5 499.31-21.61 496.11-21.61 496.11-23.24 499.53-24.85 501.77-30.15 503.97-30.15 503.97-24.1 511.03-24.1 511.03-21.61 503.97-21.61 503.97-7.64Q503.97-4.66 504.97-3.43 505.97-2.2 507.97-2.2L507.97-2.2Q509.44-2.2 510.43-2.62 511.42-3.05 511.42-3.05ZM534.56-5.54L534.56-2.49Q532.46-1.2 530.03-0.29 527.6 0.61 525.06 0.61L525.06 0.61Q522.03 0.61 519.39-0.74 516.74-2.1 515.1-4.86 513.47-7.62 513.47-11.79L513.47-11.79Q513.47-15.7 514.98-18.6 516.49-21.51 519.15-23.11 521.82-24.71 525.21-24.71L525.21-24.71Q529.87-24.71 532.22-21.81 534.56-18.92 534.56-14.45L534.56-14.45Q534.56-14.21 534.56-13.81 534.56-13.4 534.51-13.06L534.51-13.06 518.3-13.06Q518.3-11.16 518.7-9.27 519.11-7.37 520.06-5.83 521.01-4.3 522.62-3.37 524.23-2.44 526.65-2.44L526.65-2.44Q528.8-2.44 530.84-3.43 532.87-4.42 534.56-5.54L534.56-5.54ZM518.57-15.31L529.55-15.31 529.55-16.41Q529.55-18.87 528.37-20.56 527.19-22.24 524.7-22.24L524.7-22.24Q522.23-22.24 520.5-20.39 518.76-18.53 518.57-15.31L518.57-15.31ZM554.45-7.25L554.45-7.25Q554.45-3.56 551.92-1.48 549.38 0.61 544.91 0.61L544.91 0.61Q542.61 0.61 540.67 0.13 538.73-0.34 537.97-0.66L537.97-0.66 537.97-7.3 540.51-7.3 541.12-3.05Q541.88-2.56 542.99-2.11 544.1-1.66 545.57-1.66L545.57-1.66Q547.72-1.66 548.89-2.86 550.06-4.05 550.06-5.54L550.06-5.54Q550.06-7.52 548.64-8.53 547.23-9.55 544.62-10.79L544.62-10.79 543.96-11.11Q541.22-12.4 539.77-13.81 538.32-15.21 538.32-17.46L538.32-17.46Q538.32-20.8 540.66-22.75 543-24.71 547.33-24.71L547.33-24.71Q549.52-24.71 551.24-24.3 552.96-23.9 553.72-23.56L553.72-23.56 553.72-17.65 551.11-17.65 550.72-21.14Q550.18-21.56 549.13-21.92 548.08-22.29 546.91-22.29L546.91-22.29Q544.86-22.29 543.86-21.35 542.86-20.41 542.86-18.95L542.86-18.95Q542.86-17.26 544.07-16.27 545.27-15.28 548.45-13.84L548.45-13.84Q551.06-12.65 552.76-11.17 554.45-9.69 554.45-7.25Z" opacity="1" transform="matrix(1,0,0,1,0,0)" fill="#fe632a" class="slogan-text-1" data-fill-palette-color="secondary" id="text-1"></path></svg></g></svg></g></svg></g></svg></g><g><svg viewBox="0 0 129.13126162698282 129.147720205204" height="129.147720205204" width="129.13126162698282"><g><svg xmlns="http://www.w3.org/2000/svg" xmlns:xlink="http://www.w3.org/1999/xlink" version="1.1" x="0" y="0" viewBox="0.462 0.347 47.074999999999996 47.080999999999996" enable-background="new 0 0 48 48" xml:space="preserve" height="129.147720205204" width="129.13126162698282" class="icon-icon-0" data-fill-palette-color="accent" id="icon-0"><path d="M24 47.424H24.022C24.032 47.424 24.042 47.428 24.051 47.428H24.054C24.069 47.428 24.084 47.422 24.099 47.422 37.032 47.367 47.537 36.832 47.537 23.885 47.537 10.97 37.081 0.455 24.19 0.352H24.175C24.117 0.351 24.06 0.347 24 0.347 11.021 0.347 0.462 10.907 0.462 23.885 0.462 36.865 11.021 47.424 24 47.424M44.374 23.885C44.374 26.56 43.851 29.113 42.908 31.455A49 49 0 0 0 37.821 29.994 26.6 26.6 0 0 0 38.546 23.885C38.546 21.775 38.281 19.702 37.802 17.697A61 61 0 0 0 42.887 16.258 20.3 20.3 0 0 1 44.374 23.885M35.381 23.885C35.381 25.754 35.146 27.588 34.721 29.361A61 61 0 0 0 25.583 28.465V19.296A60.5 60.5 0 0 0 34.705 18.345C35.141 20.138 35.381 21.994 35.381 23.885M22.418 42.912A23.57 23.57 0 0 1 14.366 32.476 58 58 0 0 1 22.418 31.683zM25.583 42.986V31.68C28.624 31.756 31.375 32.061 33.749 32.455A23.56 23.56 0 0 1 25.583 42.986M25.583 16.092V4.785A23.6 23.6 0 0 1 33.742 15.296 57.4 57.4 0 0 1 25.583 16.092M22.418 4.859V16.091C19.418 16.009 16.704 15.706 14.357 15.317A23.57 23.57 0 0 1 22.418 4.859M22.418 19.3V28.476C19.588 28.558 16.566 28.845 13.4 29.419A23.4 23.4 0 0 1 12.726 23.884C12.726 22.015 12.96 20.181 13.386 18.406 15.986 18.865 19.027 19.217 22.418 19.3M10.304 30.066C8.609 30.466 6.88 30.955 5.124 31.539A20.3 20.3 0 0 1 3.627 23.885C3.627 21.197 4.154 18.633 5.105 16.281 6.207 16.674 7.973 17.236 10.286 17.775A26.6 26.6 0 0 0 9.562 23.884C9.562 25.994 9.825 28.063 10.304 30.066M6.555 34.396A56 56 0 0 1 11.222 33.113 26.8 26.8 0 0 0 18.014 43.359 20.46 20.46 0 0 1 6.555 34.396M30.149 43.309A26.8 26.8 0 0 0 36.901 33.071 48 48 0 0 1 41.485 34.329 20.47 20.47 0 0 1 30.149 43.309M41.464 13.405C39.915 13.902 38.388 14.315 36.886 14.66A26.8 26.8 0 0 0 30.15 4.463 20.47 20.47 0 0 1 41.464 13.405M18.015 4.411A26.8 26.8 0 0 0 11.205 14.702 49 49 0 0 1 6.531 13.415 20.47 20.47 0 0 1 18.015 4.411" fill="#000011" data-fill-palette-color="accent"></path></svg></g></svg></g></svg></g><defs></defs></svg><rect width="395.52" height="91.55321423974786" fill="none" stroke="none" visibility="hidden"></rect></g></svg></g></svg>