<svg width="100" height="100" viewBox="0 0 100 100" fill="none" xmlns="http://www.w3.org/2000/svg">
<g clip-path="url(#clip0_9238_12575)">
<path d="M92.3633 5H81.6406C80.1832 5 79.0039 6.17932 79.0039 7.63672V10.2734H57.4245C56.3323 7.21098 53.433 5 50 5C46.567 5 43.6677 7.21098 42.5755 10.2734H20.9961V7.63672C20.9961 6.17932 19.8168 5 18.3594 5H7.63672C6.17932 5 5 6.17932 5 7.63672V18.1836C5 19.641 6.17932 20.8203 7.63672 20.8203H18.3594C19.8168 20.8203 20.9961 19.641 20.9961 18.1836V15.5117H31.8249C22.6743 21.2283 16.6406 31.2687 15.9194 42.5144C12.7556 43.5499 10.4492 46.4949 10.4492 50C10.4492 54.3618 13.9975 57.9102 18.3594 57.9102C22.7212 57.9102 26.2695 54.3618 26.2695 50C26.2695 46.6355 24.1494 43.7751 21.1824 42.6335C22.0821 30.0959 30.8304 19.5287 42.9992 16.5137C44.3152 19.0585 46.9426 20.8203 50 20.8203C53.0574 20.8203 55.6848 19.0585 57.0008 16.5137C69.1696 19.5285 77.9179 30.0958 78.8176 42.6334C75.8506 43.7751 73.7305 46.6355 73.7305 50C73.7305 54.3618 77.2788 57.9102 81.6406 57.9102C86.0025 57.9102 89.5508 54.3618 89.5508 50C89.5508 46.4949 87.2444 43.5499 84.0806 42.5144C83.3594 31.2687 77.3257 21.2635 68.1751 15.5469H79.0039V18.1836C79.0039 19.641 80.1832 20.8203 81.6406 20.8203H92.3633C93.8207 20.8203 95 19.641 95 18.1836V7.63672C95 6.17932 93.8207 5 92.3633 5Z" fill="url(#paint0_linear_9238_12575)"/>
<path d="M67.9454 91.7296C66.5662 87.5093 62.5929 84.2773 57.9171 84.2773H42.0968C37.421 84.2773 33.4476 87.5093 32.0685 91.7296C31.5367 93.3568 32.921 95 34.6331 95H65.3808C67.0927 95 68.4771 93.3568 67.9454 91.7296Z" fill="url(#paint1_linear_9238_12575)"/>
<path d="M73.2875 59.0857L52.6367 28.1094V53.1238C55.6992 54.2159 57.9102 57.1152 57.9102 60.5482C57.9102 64.9101 54.3619 68.4584 50 68.4584C45.6382 68.4584 42.0899 64.9101 42.0899 60.5482C42.0899 57.1152 44.3008 54.2159 47.3633 53.1238V28.1094L26.7125 59.0857C26.0147 60.1311 26.1537 61.5242 27.0421 62.4126C31.8826 67.253 34.9767 73.4889 36.1708 80.1779C38.0024 79.4349 39.9946 79.0053 42.0899 79.0053H57.9102C60.0055 79.0053 61.9976 79.4347 63.8293 80.1775C65.0233 73.4882 68.1175 67.253 72.9579 62.4126C73.8463 61.5242 73.9854 60.1311 73.2875 59.0857Z" fill="url(#paint2_linear_9238_12575)"/>
<path d="M50 57.9102C48.5452 57.9102 47.3633 59.0921 47.3633 60.5469C47.3633 62.0016 48.5452 63.1836 50 63.1836C51.4548 63.1836 52.6367 62.0016 52.6367 60.5469C52.6367 59.0921 51.4548 57.9102 50 57.9102Z" fill="url(#paint3_linear_9238_12575)"/>
</g>
<defs>
<linearGradient id="paint0_linear_9238_12575" x1="50" y1="5" x2="50" y2="57.9102" gradientUnits="userSpaceOnUse">
<stop stop-color="#1E285F"/>
<stop offset="1" stop-color="#0557A2"/>
</linearGradient>
<linearGradient id="paint1_linear_9238_12575" x1="50.0069" y1="84.2773" x2="50.0069" y2="95" gradientUnits="userSpaceOnUse">
<stop stop-color="#1E285F"/>
<stop offset="1" stop-color="#0557A2"/>
</linearGradient>
<linearGradient id="paint2_linear_9238_12575" x1="50" y1="28.1094" x2="50" y2="80.1779" gradientUnits="userSpaceOnUse">
<stop stop-color="#1E285F"/>
<stop offset="1" stop-color="#0557A2"/>
</linearGradient>
<linearGradient id="paint3_linear_9238_12575" x1="50" y1="57.9102" x2="50" y2="63.1836" gradientUnits="userSpaceOnUse">
<stop stop-color="#1E285F"/>
<stop offset="1" stop-color="#0557A2"/>
</linearGradient>
<clipPath id="clip0_9238_12575">
<rect width="100" height="100" fill="white"/>
</clipPath>
</defs>
</svg>
