<svg width="100" height="100" viewBox="0 0 100 100" fill="none" xmlns="http://www.w3.org/2000/svg">
<g clip-path="url(#clip0_9236_12511)">
<path d="M94.4414 48.882L71.472 25.9126C70.7578 25.1984 69.494 25.1984 68.7798 25.9126L63.8 30.8924C63.0562 31.6362 63.0562 32.8418 63.8 33.5856L80.444 50.2277L63.801 66.8726C63.0572 67.6164 63.0572 68.822 63.801 69.5658L68.7807 74.5456C69.1379 74.9027 69.6226 75.1046 70.1273 75.1046C70.6311 75.1046 71.1168 74.9027 71.4739 74.5456L94.4414 51.5771C95.1852 50.8324 95.1852 49.6258 94.4414 48.882Z" fill="url(#paint0_linear_9236_12511)"/>
<path d="M36.1983 66.8735L19.5572 50.2305L36.2011 33.5885C36.5583 33.2313 36.7592 32.7475 36.7592 32.2419C36.7592 31.7371 36.5592 31.2524 36.2011 30.8953L31.2214 25.9155C30.8642 25.5584 30.3795 25.3574 29.8748 25.3574C29.37 25.3574 28.8853 25.5584 28.5282 25.9155L5.55783 48.883C4.81406 49.6267 4.81406 50.8324 5.55783 51.5771L28.5272 74.5456C28.8843 74.9027 29.3691 75.1046 29.8738 75.1046C30.3786 75.1046 30.8633 74.9027 31.2204 74.5456L36.2002 69.5658C36.944 68.823 36.944 67.6173 36.1983 66.8735Z" fill="url(#paint1_linear_9236_12511)"/>
<path d="M63.0617 18.1864C62.8198 17.7426 62.4122 17.4131 61.9285 17.2702L57.8915 16.0788C56.8839 15.7798 55.823 16.3579 55.5259 17.3664L36.7849 80.8329C36.642 81.3176 36.6973 81.8386 36.9382 82.2814C37.1792 82.7261 37.5877 83.0547 38.0715 83.1985L42.1084 84.3899C42.2884 84.4432 42.4703 84.4689 42.6484 84.4689C43.4703 84.4689 44.2293 83.9318 44.474 83.1023L63.2151 19.6349C63.3579 19.1501 63.3036 18.6292 63.0617 18.1864Z" fill="url(#paint2_linear_9236_12511)"/>
</g>
<defs>
<linearGradient id="paint0_linear_9236_12511" x1="79.1207" y1="25.377" x2="79.1207" y2="75.1046" gradientUnits="userSpaceOnUse">
<stop stop-color="#1E285F"/>
<stop offset="0.0001" stop-color="#1E285F"/>
<stop offset="1" stop-color="#0557A2"/>
</linearGradient>
<linearGradient id="paint1_linear_9236_12511" x1="20.8796" y1="25.3574" x2="20.8796" y2="75.1046" gradientUnits="userSpaceOnUse">
<stop stop-color="#1E285F"/>
<stop offset="0.0001" stop-color="#1E285F"/>
<stop offset="1" stop-color="#0557A2"/>
</linearGradient>
<linearGradient id="paint2_linear_9236_12511" x1="50.0001" y1="16" x2="50.0001" y2="84.4689" gradientUnits="userSpaceOnUse">
<stop stop-color="#1E285F"/>
<stop offset="0.0001" stop-color="#1E285F"/>
<stop offset="1" stop-color="#0557A2"/>
</linearGradient>
<clipPath id="clip0_9236_12511">
<rect width="100" height="100" fill="white"/>
</clipPath>
</defs>
</svg>
